<svg width="197" height="36" viewBox="0 0 197 36" fill="none" xmlns="http://www.w3.org/2000/svg">
<path d="M77.1378 9.97603L74.6077 11.0413C74.4104 10.4002 74.1441 9.81328 73.8087 9.28063C73.4832 8.74797 73.0886 8.29423 72.625 7.9194C72.1713 7.53471 71.6534 7.23879 71.0714 7.03165C70.4895 6.81464 69.8532 6.70614 69.1628 6.70614C68.423 6.70614 67.7424 6.82944 67.1209 7.07604C66.5094 7.31277 65.957 7.64321 65.4638 8.06736C64.9805 8.49151 64.5563 8.98471 64.1913 9.54695C63.8264 10.1092 63.5206 10.7109 63.274 11.3521C63.0274 11.9833 62.8449 12.6393 62.7266 13.3199C62.6082 14.0005 62.549 14.6663 62.549 15.3174C62.549 16.3531 62.6674 17.3839 62.9041 18.4097C63.1507 19.4356 63.5354 20.3578 64.0582 21.1765C64.5908 21.9952 65.2764 22.6611 66.1148 23.174C66.9532 23.677 67.9692 23.9286 69.1628 23.9286C69.7941 23.9286 70.3908 23.825 70.9531 23.6179C71.5153 23.4009 72.0233 23.1099 72.4771 22.7449C72.9407 22.3701 73.3451 21.9311 73.6903 21.4281C74.0356 20.925 74.3117 20.3825 74.5189 19.8005L77.0786 20.8214C76.7037 21.7585 76.1908 22.5821 75.5398 23.2923C74.8888 23.9927 74.1441 24.5747 73.3056 25.0383C72.4771 25.5019 71.5844 25.8471 70.6276 26.074C69.6806 26.3107 68.7238 26.4291 67.7572 26.4291C66.7116 26.4291 65.7055 26.3009 64.7388 26.0444C63.782 25.7879 62.8893 25.423 62.0607 24.9495C61.2322 24.476 60.4776 23.9039 59.797 23.2332C59.1262 22.5624 58.5492 21.8177 58.0658 20.999C57.5924 20.1803 57.2225 19.2925 56.9561 18.3357C56.6997 17.3691 56.5715 16.3629 56.5715 15.3174C56.5715 14.2718 56.6997 13.2706 56.9561 12.3138C57.2225 11.3471 57.5924 10.4544 58.0658 9.63573C58.5492 8.80716 59.1262 8.0575 59.797 7.38675C60.4776 6.716 61.2322 6.1439 62.0607 5.67043C62.8893 5.19696 63.782 4.83199 64.7388 4.57553C65.7055 4.31907 66.7116 4.19084 67.7572 4.19084C68.7633 4.19084 69.7447 4.3092 70.7015 4.54594C71.6682 4.78267 72.5658 5.14271 73.3944 5.62604C74.223 6.09951 74.9578 6.70121 75.599 7.43114C76.25 8.15121 76.7629 8.99951 77.1378 9.97603ZM84.1853 26H79.1843V1.03931H81.1078L84.1853 6.23267V26ZM92.5498 4.78267C92.5498 5.1575 92.4758 5.5126 92.3278 5.84798C92.1897 6.18335 91.9974 6.47434 91.7508 6.72094C91.5042 6.96753 91.2132 7.16481 90.8778 7.31277C90.5425 7.45087 90.1874 7.51991 89.8125 7.51991C89.4377 7.51991 89.0826 7.45087 88.7472 7.31277C88.4217 7.16481 88.1357 6.96753 87.8891 6.72094C87.6425 6.47434 87.4452 6.18335 87.2972 5.84798C87.1591 5.5126 87.0901 5.1575 87.0901 4.78267C87.0901 4.40784 87.1591 4.05767 87.2972 3.73216C87.4452 3.39679 87.6425 3.1058 87.8891 2.8592C88.1357 2.61261 88.4217 2.42026 88.7472 2.28216C89.0826 2.13421 89.4377 2.06023 89.8125 2.06023C90.1874 2.06023 90.5425 2.13421 90.8778 2.28216C91.2132 2.42026 91.5042 2.61261 91.7508 2.8592C91.9974 3.1058 92.1897 3.39679 92.3278 3.73216C92.4758 4.05767 92.5498 4.40784 92.5498 4.78267ZM92.3278 26H87.312V8.92553H92.3278V26ZM121.91 16.0276C121.91 17.2014 121.771 18.4245 121.495 19.6969C121.219 20.9694 120.829 22.2122 120.326 23.4255C119.833 24.6289 119.236 25.7682 118.536 26.8434C117.836 27.9185 117.057 28.8507 116.198 29.6398L114.319 28.6189C114.605 28.106 114.867 27.5289 115.103 26.8878C115.34 26.2466 115.557 25.5709 115.754 24.8607C115.952 24.1505 116.124 23.4206 116.272 22.6709C116.42 21.9213 116.544 21.1765 116.642 20.4367C116.751 19.6871 116.83 18.9621 116.879 18.2617C116.928 17.5614 116.953 16.9055 116.953 16.2939C116.953 15.9486 116.943 15.5738 116.923 15.1694C116.904 14.765 116.859 14.3606 116.79 13.9561C116.731 13.5517 116.637 13.167 116.509 12.8021C116.381 12.4272 116.203 12.0968 115.976 11.8107C115.759 11.5148 115.483 11.283 115.148 11.1153C114.822 10.9378 114.428 10.849 113.964 10.849C113.51 10.849 113.121 10.9723 112.795 11.2189C112.48 11.4556 112.208 11.7663 111.982 12.151C111.755 12.5357 111.572 12.9697 111.434 13.4531C111.306 13.9364 111.207 14.4247 111.138 14.9179C111.069 15.4012 111.02 15.8648 110.99 16.3087C110.97 16.7526 110.961 17.1274 110.961 17.4332V26H105.974V18.0398C105.974 17.6946 105.979 17.2803 105.989 16.7969C105.999 16.3038 105.984 15.7908 105.945 15.2582C105.915 14.7255 105.851 14.1978 105.752 13.675C105.664 13.1424 105.516 12.6689 105.309 12.2546C105.111 11.8403 104.84 11.5049 104.495 11.2485C104.15 10.9822 103.716 10.849 103.193 10.849C102.749 10.849 102.374 10.9723 102.068 11.2189C101.772 11.4655 101.521 11.7861 101.314 12.1806C101.116 12.5653 100.959 13.0043 100.84 13.4975C100.732 13.9808 100.648 14.4691 100.589 14.9623C100.539 15.4456 100.51 15.9092 100.5 16.3531C100.49 16.7871 100.485 17.1471 100.485 17.4332V26H95.4693V8.91073H97.3928L99.2275 12.8908C99.6417 11.5099 100.293 10.4347 101.181 9.66532C102.078 8.88607 103.267 8.49644 104.746 8.49644C106.078 8.49644 107.183 8.77263 108.061 9.32502C108.939 9.8774 109.629 10.775 110.132 12.0179C110.418 11.4754 110.734 10.9871 111.079 10.5531C111.434 10.1191 111.824 9.74916 112.248 9.44338C112.682 9.1376 113.16 8.9058 113.683 8.74797C114.206 8.58029 114.783 8.49644 115.414 8.49644C116.578 8.49644 117.569 8.68879 118.388 9.07348C119.217 9.44831 119.892 9.9711 120.415 10.6419C120.938 11.3126 121.318 12.1116 121.554 13.0388C121.791 13.9561 121.91 14.9524 121.91 16.0276ZM141.386 26H136.385V23.9582C135.793 24.767 135.078 25.3687 134.239 25.7633C133.411 26.148 132.498 26.3403 131.502 26.3403C130.2 26.3403 129.036 26.1085 128.01 25.6449C126.984 25.1813 126.116 24.55 125.406 23.751C124.696 22.9422 124.153 21.9952 123.779 20.9102C123.404 19.8252 123.216 18.6612 123.216 17.4184C123.216 16.1755 123.404 15.0116 123.779 13.9265C124.153 12.8415 124.696 11.8995 125.406 11.1005C126.116 10.2917 126.984 9.65546 128.01 9.19185C129.036 8.72825 130.2 8.49644 131.502 8.49644C132.163 8.49644 132.789 8.59508 133.381 8.79236C133.983 8.98964 134.53 9.27076 135.023 9.63573C135.527 9.99083 135.965 10.4248 136.34 10.9378C136.725 11.4408 137.026 12.0031 137.243 12.6245L139.462 8.91073H141.386V26ZM136.355 17.4184C136.355 16.9745 136.33 16.506 136.281 16.0128C136.242 15.5196 136.168 15.0313 136.059 14.548C135.951 14.0646 135.798 13.606 135.601 13.172C135.413 12.7281 135.167 12.3384 134.861 12.0031C134.565 11.6578 134.205 11.3866 133.781 11.1893C133.356 10.992 132.863 10.8934 132.301 10.8934C131.739 10.8934 131.251 10.997 130.836 11.2041C130.422 11.4014 130.067 11.6726 129.771 12.0179C129.475 12.3532 129.228 12.7429 129.031 13.1867C128.844 13.6306 128.696 14.0942 128.587 14.5776C128.479 15.0609 128.4 15.5492 128.351 16.0424C128.311 16.5257 128.291 16.9844 128.291 17.4184C128.291 17.8524 128.311 18.316 128.351 18.8092C128.4 19.3024 128.479 19.7907 128.587 20.274C128.696 20.7573 128.844 21.2209 129.031 21.6648C129.228 22.1087 129.475 22.5032 129.771 22.8485C130.067 23.1838 130.422 23.4551 130.836 23.6622C131.251 23.8595 131.739 23.9582 132.301 23.9582C132.814 23.9582 133.268 23.8546 133.662 23.6475C134.067 23.4304 134.417 23.1444 134.713 22.7893C135.019 22.4342 135.275 22.0298 135.482 21.576C135.689 21.1223 135.857 20.6537 135.985 20.1704C136.113 19.6871 136.207 19.2087 136.266 18.7352C136.326 18.2519 136.355 17.8129 136.355 17.4184ZM151.082 4.6939C150.815 5.49288 150.584 6.32145 150.386 7.17961C150.189 8.02791 150.026 8.88114 149.898 9.7393C149.77 10.5876 149.671 11.426 149.602 12.2546C149.543 13.0832 149.513 13.8674 149.513 14.6072C149.513 15.1497 149.513 15.7612 149.513 16.4418C149.523 17.1126 149.563 17.7981 149.632 18.4985C149.711 19.1988 149.834 19.8844 150.002 20.5551C150.169 21.216 150.416 21.8078 150.741 22.3306C151.077 22.8534 151.501 23.2726 152.014 23.5883C152.537 23.9039 153.183 24.0617 153.952 24.0617C154.633 24.0617 155.215 23.9483 155.698 23.7214C156.191 23.4847 156.606 23.1691 156.941 22.7745C157.286 22.3799 157.557 21.9262 157.755 21.4133C157.962 20.9003 158.12 20.3628 158.228 19.8005C158.347 19.2383 158.421 18.6711 158.45 18.099C158.49 17.517 158.509 16.9646 158.509 16.4418V4.6939H164.383V15.5245C164.383 17.0731 164.137 18.5133 163.643 19.8449C163.15 21.1765 162.455 22.3355 161.557 23.3219C160.66 24.2985 159.575 25.0679 158.302 25.6301C157.03 26.1825 155.619 26.4587 154.071 26.4587C153.005 26.4587 152.014 26.3058 151.097 26C150.179 25.7041 149.336 25.2947 148.566 24.7719C147.807 24.2393 147.126 23.6129 146.525 22.8929C145.933 22.1629 145.435 21.3689 145.03 20.5107C144.636 19.6526 144.335 18.75 144.128 17.8031C143.921 16.8463 143.827 15.8796 143.847 14.9031V14.6072C143.856 13.818 143.935 13.0043 144.083 12.1658C144.231 11.3175 144.429 10.4692 144.675 9.62093C144.932 8.77263 145.237 7.9342 145.592 7.10563C145.948 6.26719 146.342 5.46328 146.776 4.6939H151.082ZM173.769 26H167.895V4.6939H179.406C180.402 4.6939 181.354 4.82706 182.261 5.09339C183.179 5.35971 183.988 5.76413 184.688 6.30665C185.388 6.8393 185.946 7.51498 186.36 8.33369C186.784 9.14253 186.996 10.0944 186.996 11.1893C186.996 11.8798 186.898 12.5308 186.7 13.1424C186.503 13.7441 186.227 14.2964 185.872 14.7995C185.526 15.3026 185.117 15.7563 184.644 16.1607C184.17 16.5651 183.652 16.9055 183.09 17.1816C182.528 17.4578 181.931 17.6699 181.3 17.8179C180.678 17.9658 180.047 18.0398 179.406 18.0398H173.769V26ZM181.048 11.1893C181.048 9.81821 180.698 8.74304 179.998 7.96379C179.307 7.17468 178.262 6.78012 176.861 6.78012H173.769V16.0276H176.861C177.611 16.0276 178.247 15.9092 178.77 15.6725C179.302 15.4259 179.736 15.0856 180.072 14.6515C180.407 14.2175 180.654 13.7095 180.811 13.1276C180.969 12.5357 181.048 11.8896 181.048 11.1893Z" fill="url(#paint0_linear_45_505)"/>
<path d="M30.6543 2.11768L21.9096 10.7649L27.0987 15.9246L30.6543 12.3893L40.6481 22.3742L45.7892 17.2145L30.6543 2.11768ZM15.183 7.2296L0 22.3264L5.18911 27.4861L15.183 17.5489L25.1769 27.4861L30.366 22.3264L15.1831 7.2296H15.183Z" fill="url(#paint1_linear_45_505)"/>
<defs>
<linearGradient id="paint0_linear_45_505" x1="55.373" y1="16.2621" x2="196.981" y2="18.9934" gradientUnits="userSpaceOnUse">
<stop stop-color="#007DFE"/>
<stop offset="1" stop-color="#3AA2FF"/>
</linearGradient>
<linearGradient id="paint1_linear_45_505" x1="7.83067e-09" y1="13.5772" x2="45.7964" y2="13.9825" gradientUnits="userSpaceOnUse">
<stop stop-color="#007DFE"/>
<stop offset="1" stop-color="#3AA2FF"/>
</linearGradient>
</defs>
</svg>
