<svg width="68" height="72" viewBox="0 0 68 72" fill="none" xmlns="http://www.w3.org/2000/svg">
<g filter="url(#filter0_i_44_430)">
<path d="M48.3984 14.7154C48.4914 14.1895 48.5398 13.6485 48.5398 13.0963C48.5398 7.93042 44.2975 3.74268 39.0643 3.74268C35.1739 3.74268 31.8311 6.0571 30.3718 9.36723C29.1896 8.35968 27.6555 7.75135 25.9791 7.75135C22.2411 7.75135 19.2109 10.7758 19.2109 14.5067C19.2109 14.7145 19.2203 14.92 19.2387 15.123C17.4408 15.9923 16.2028 17.8164 16.2028 19.9259C16.2028 22.8778 18.627 25.2708 21.6174 25.2708H47.1862C50.1766 25.2708 52.6008 22.8778 52.6008 19.9259C52.6008 17.3853 50.8052 15.2588 48.3984 14.7154Z" fill="url(#paint0_linear_44_430)"/>
</g>
<g filter="url(#filter1_f_44_430)">
<path d="M33.9256 11.7625C28.3624 19.3158 27.3977 29.6242 32.3053 38.1243C37.2128 46.6244 46.6224 50.9431 55.9455 49.9019C53.9631 52.5934 51.3969 54.9351 48.3044 56.7205C36.5333 63.5166 21.5949 59.6799 14.9387 48.1509C8.2824 36.6219 12.4289 21.7666 24.2 14.9705C27.2925 13.185 30.6036 12.1335 33.9256 11.7625Z" fill="#FFEE94"/>
</g>
<g filter="url(#filter2_i_44_430)">
<path d="M33.4069 14.9458C28.3286 21.8407 27.448 31.2505 31.9278 39.0097C36.4076 46.7689 44.997 50.7112 53.5074 49.7607C51.6978 52.2176 49.3553 54.3552 46.5324 55.985C35.7873 62.1887 22.151 58.6864 16.075 48.1624C9.99894 37.6383 13.784 24.0778 24.5291 17.8742C27.352 16.2443 30.3744 15.2844 33.4069 14.9458Z" fill="url(#paint1_linear_44_430)"/>
</g>
<g filter="url(#filter4_i_44_430)">
<path d="M56.2509 55.0475C56.3666 54.3914 56.4269 53.7166 56.4269 53.0277C56.4269 46.5837 51.1499 41.3599 44.6403 41.3599C39.801 41.3599 35.6428 44.2469 33.8276 48.3761C32.3571 47.1192 30.4488 46.3604 28.3636 46.3604C23.7139 46.3604 19.9445 50.1332 19.9445 54.7872C19.9445 55.0463 19.9562 55.3027 19.9791 55.5559C17.7427 56.6403 16.2028 58.9157 16.2028 61.5471C16.2028 65.2294 19.2182 68.2145 22.938 68.2145H54.7431C58.4628 68.2145 61.4783 65.2294 61.4783 61.5471C61.4783 58.378 59.2447 55.7253 56.2509 55.0475Z" fill="url(#paint2_linear_44_430)"/>
</g>
<defs>
<filter id="filter0_i_44_430" x="16.2028" y="3.74268" width="36.398" height="23.7477" filterUnits="userSpaceOnUse" color-interpolation-filters="sRGB">
<feFlood flood-opacity="0" result="BackgroundImageFix"/>
<feBlend mode="normal" in="SourceGraphic" in2="BackgroundImageFix" result="shape"/>
<feColorMatrix in="SourceAlpha" type="matrix" values="0 0 0 0 0 0 0 0 0 0 0 0 0 0 0 0 0 0 127 0" result="hardAlpha"/>
<feOffset dy="2.44133"/>
<feGaussianBlur stdDeviation="1.10969"/>
<feComposite in2="hardAlpha" operator="arithmetic" k2="-1" k3="1"/>
<feColorMatrix type="matrix" values="0 0 0 0 1 0 0 0 0 1 0 0 0 0 1 0 0 0 1 0"/>
<feBlend mode="normal" in2="shape" result="effect1_innerShadow_44_430"/>
</filter>
<filter id="filter1_f_44_430" x="-6.67572e-06" y="-6.77109e-05" width="67.7082" height="71.8444" filterUnits="userSpaceOnUse" color-interpolation-filters="sRGB">
<feFlood flood-opacity="0" result="BackgroundImageFix"/>
<feBlend mode="normal" in="SourceGraphic" in2="BackgroundImageFix" result="shape"/>
<feGaussianBlur stdDeviation="5.88138" result="effect1_foregroundBlur_44_430"/>
</filter>
<filter id="filter2_i_44_430" x="13.1759" y="14.9458" width="40.3314" height="44.9947" filterUnits="userSpaceOnUse" color-interpolation-filters="sRGB">
<feFlood flood-opacity="0" result="BackgroundImageFix"/>
<feBlend mode="normal" in="SourceGraphic" in2="BackgroundImageFix" result="shape"/>
<feColorMatrix in="SourceAlpha" type="matrix" values="0 0 0 0 0 0 0 0 0 0 0 0 0 0 0 0 0 0 127 0" result="hardAlpha"/>
<feOffset dy="0.887756"/>
<feGaussianBlur stdDeviation="0.887756"/>
<feComposite in2="hardAlpha" operator="arithmetic" k2="-1" k3="1"/>
<feColorMatrix type="matrix" values="0 0 0 0 1 0 0 0 0 1 0 0 0 0 1 0 0 0 0.55 0"/>
<feBlend mode="normal" in2="shape" result="effect1_innerShadow_44_430"/>
</filter>
<filter id="filter4_i_44_430" x="16.2028" y="41.3599" width="45.2755" height="29.0739" filterUnits="userSpaceOnUse" color-interpolation-filters="sRGB">
<feFlood flood-opacity="0" result="BackgroundImageFix"/>
<feBlend mode="normal" in="SourceGraphic" in2="BackgroundImageFix" result="shape"/>
<feColorMatrix in="SourceAlpha" type="matrix" values="0 0 0 0 0 0 0 0 0 0 0 0 0 0 0 0 0 0 127 0" result="hardAlpha"/>
<feOffset dy="2.44133"/>
<feGaussianBlur stdDeviation="1.10969"/>
<feComposite in2="hardAlpha" operator="arithmetic" k2="-1" k3="1"/>
<feColorMatrix type="matrix" values="0 0 0 0 1 0 0 0 0 1 0 0 0 0 1 0 0 0 1 0"/>
<feBlend mode="normal" in2="shape" result="effect1_innerShadow_44_430"/>
</filter>
<linearGradient id="paint0_linear_44_430" x1="18.5179" y1="23.3486" x2="55.1405" y2="-4.13901" gradientUnits="userSpaceOnUse">
<stop stop-color="white"/>
<stop offset="1" stop-color="white" stop-opacity="0.58"/>
</linearGradient>
<linearGradient id="paint1_linear_44_430" x1="34.5128" y1="11.2892" x2="26.4507" y2="60.1048" gradientUnits="userSpaceOnUse">
<stop stop-color="#FFEE94"/>
<stop offset="1" stop-color="#FF9900"/>
</linearGradient>
<linearGradient id="paint2_linear_44_430" x1="19.0825" y1="65.8167" x2="64.7302" y2="31.6519" gradientUnits="userSpaceOnUse">
<stop stop-color="white"/>
<stop offset="1" stop-color="white" stop-opacity="0.58"/>
</linearGradient>
</defs>
</svg>
